<svg width="1176" height="84" viewBox="0 0 1176 84" fill="none" xmlns="http://www.w3.org/2000/svg">
<rect width="1176" height="84" fill="white"/>
<circle cx="74" cy="42" r="26" fill="#253BFF"/>
<rect x="65.6562" y="33.6699" width="6.69214" height="6.69336" rx="1" fill="white"/>
<rect x="65.6562" y="43.6523" width="6.69214" height="6.69336" rx="1" fill="white"/>
<rect x="75.6539" y="43.6523" width="6.69214" height="6.69336" rx="1" fill="white"/>
<circle cx="78.9871" cy="37.041" r="3.69067" fill="white"/>
<path d="M118.112 55V31.16H122.912L131.84 43H129.6L138.272 31.16H143.072V55H138.112V36.632L140.096 37.08L130.912 48.92H130.272L121.408 37.08L123.072 36.632V55H118.112ZM154.083 55.384C152.227 55.384 150.617 54.9787 149.251 54.168C147.886 53.336 146.83 52.2267 146.083 50.84C145.337 49.4533 144.963 47.9173 144.963 46.232C144.963 44.4827 145.347 42.9253 146.115 41.56C146.905 40.1947 147.961 39.1173 149.283 38.328C150.606 37.5387 152.099 37.144 153.764 37.144C155.15 37.144 156.377 37.368 157.443 37.816C158.51 38.2427 159.406 38.8507 160.132 39.64C160.878 40.4293 161.444 41.3467 161.827 42.392C162.211 43.416 162.403 44.536 162.403 45.752C162.403 46.0933 162.382 46.4347 162.34 46.776C162.318 47.096 162.265 47.3733 162.18 47.608H149.091V44.088H159.46L157.188 45.752C157.401 44.8347 157.39 44.024 157.156 43.32C156.921 42.5947 156.505 42.0293 155.908 41.624C155.332 41.1973 154.617 40.984 153.764 40.984C152.932 40.984 152.217 41.1867 151.619 41.592C151.022 41.9973 150.574 42.5947 150.275 43.384C149.977 44.1733 149.859 45.1333 149.923 46.264C149.838 47.2453 149.955 48.1093 150.275 48.856C150.595 49.6027 151.086 50.1893 151.747 50.616C152.409 51.0213 153.209 51.224 154.148 51.224C155.001 51.224 155.726 51.0533 156.323 50.712C156.942 50.3707 157.422 49.9013 157.764 49.304L161.604 51.128C161.262 51.9813 160.718 52.728 159.972 53.368C159.246 54.008 158.382 54.5093 157.38 54.872C156.377 55.2133 155.278 55.384 154.083 55.384ZM163.95 55V37.528H168.43V40.984L168.174 40.216C168.579 39.1707 169.23 38.4027 170.126 37.912C171.043 37.4 172.11 37.144 173.326 37.144C174.649 37.144 175.801 37.4213 176.782 37.976C177.785 38.5307 178.563 39.3093 179.118 40.312C179.673 41.2933 179.95 42.4453 179.95 43.768V55H175.15V44.792C175.15 44.1093 175.011 43.5227 174.734 43.032C174.478 42.5413 174.105 42.1573 173.614 41.88C173.145 41.6027 172.59 41.464 171.95 41.464C171.331 41.464 170.777 41.6027 170.286 41.88C169.795 42.1573 169.411 42.5413 169.134 43.032C168.878 43.5227 168.75 44.1093 168.75 44.792V55H163.95ZM188.098 55.384C186.69 55.384 185.485 55.0853 184.482 54.488C183.501 53.8693 182.754 53.016 182.242 51.928C181.73 50.84 181.474 49.5707 181.474 48.12V37.528H186.274V47.736C186.274 48.3973 186.402 48.984 186.658 49.496C186.936 49.9867 187.32 50.3707 187.81 50.648C188.301 50.9253 188.856 51.064 189.474 51.064C190.114 51.064 190.669 50.9253 191.138 50.648C191.629 50.3707 192.002 49.9867 192.258 49.496C192.536 48.984 192.674 48.3973 192.674 47.736V37.528H197.474V55H192.994V51.544L193.25 52.312C192.845 53.3573 192.184 54.136 191.266 54.648C190.37 55.1387 189.314 55.384 188.098 55.384ZM206.55 55.384C204.63 55.384 202.956 54.936 201.526 54.04C200.118 53.1227 199.158 51.896 198.646 50.36L202.166 48.696C202.614 49.6347 203.222 50.3707 203.99 50.904C204.758 51.4373 205.612 51.704 206.55 51.704C207.233 51.704 207.756 51.5653 208.118 51.288C208.481 51.0107 208.662 50.6267 208.662 50.136C208.662 49.88 208.598 49.6667 208.47 49.496C208.342 49.304 208.15 49.1333 207.894 48.984C207.638 48.8347 207.318 48.7067 206.934 48.6L203.958 47.768C202.529 47.3627 201.43 46.712 200.662 45.816C199.894 44.8987 199.51 43.8213 199.51 42.584C199.51 41.496 199.788 40.5467 200.342 39.736C200.897 38.9253 201.676 38.296 202.678 37.848C203.681 37.3787 204.833 37.144 206.134 37.144C207.841 37.144 209.334 37.5493 210.614 38.36C211.916 39.1493 212.833 40.2693 213.366 41.72L209.814 43.384C209.558 42.6587 209.089 42.0827 208.406 41.656C207.745 41.208 206.988 40.984 206.134 40.984C205.516 40.984 205.025 41.112 204.662 41.368C204.321 41.624 204.15 41.976 204.15 42.424C204.15 42.6587 204.214 42.872 204.342 43.064C204.47 43.256 204.673 43.4267 204.95 43.576C205.249 43.7253 205.612 43.864 206.038 43.992L208.822 44.824C210.273 45.2507 211.382 45.9013 212.15 46.776C212.918 47.6293 213.302 48.6853 213.302 49.944C213.302 51.032 213.014 51.9813 212.438 52.792C211.884 53.6027 211.105 54.2427 210.102 54.712C209.1 55.16 207.916 55.384 206.55 55.384Z" fill="#101828"/>
</svg>
